<?xml version="1.0" encoding="UTF-8" standalone="no"?>
<!-- Created with Inkscape (http://www.inkscape.org/) -->

<svg
   xmlns:dc="http://purl.org/dc/elements/1.1/"
   xmlns:cc="http://creativecommons.org/ns#"
   xmlns:rdf="http://www.w3.org/1999/02/22-rdf-syntax-ns#"
   xmlns:svg="http://www.w3.org/2000/svg"
   xmlns="http://www.w3.org/2000/svg"
   xmlns:sodipodi="http://sodipodi.sourceforge.net/DTD/sodipodi-0.dtd"
   xmlns:inkscape="http://www.inkscape.org/namespaces/inkscape"
   width="109.76429mm"
   height="23.367786mm"
   viewBox="0 0 109.76429 23.367786"
   version="1.1"
   id="svg1460"
   inkscape:version="0.92.5 (2060ec1f9f, 2020-04-08)"
   sodipodi:docname="subscribe.svg">
  <defs
     id="defs1454" />
  <sodipodi:namedview
     id="base"
     pagecolor="#ffffff"
     bordercolor="#666666"
     borderopacity="1.0"
     inkscape:pageopacity="0.0"
     inkscape:pageshadow="2"
     inkscape:zoom="0.98994949"
     inkscape:cx="123.02517"
     inkscape:cy="62.689564"
     inkscape:document-units="mm"
     inkscape:current-layer="layer1"
     showgrid="false"
     inkscape:window-width="1920"
     inkscape:window-height="1016"
     inkscape:window-x="0"
     inkscape:window-y="27"
     inkscape:window-maximized="1" />
  <metadata
     id="metadata1457">
    <rdf:RDF>
      <cc:Work
         rdf:about="">
        <dc:format>image/svg+xml</dc:format>
        <dc:type
           rdf:resource="http://purl.org/dc/dcmitype/StillImage" />
        <dc:title></dc:title>
      </cc:Work>
    </rdf:RDF>
  </metadata>
  <g
     inkscape:label="Camada 1"
     inkscape:groupmode="layer"
     id="layer1"
     transform="translate(-14.665474,4.9696074)">
    <path
       style="opacity:1;fill:#ffffff;fill-opacity:1;stroke:none;stroke-width:1;stroke-miterlimit:4;stroke-dasharray:none;stroke-opacity:1;paint-order:normal"
       d="m 22.537737,-4.0341643 h 91.819283 c 2.66521,0 4.81084,2.1456343 4.81084,4.81083919 V 11.98372 c 0,2.665205 -2.14563,4.81084 -4.81084,4.81084 H 22.537737 c -2.665205,0 -4.810839,-2.145635 -4.810839,-4.81084 V 0.77667489 c 0,-2.66520489 2.145634,-4.81083919 4.810839,-4.81083919 z"
       id="rect2029"
       inkscape:connector-curvature="0" />
    <path
       style="fill:#ff2a2a;stroke-width:0.21438336"
       d="M 15.260742,17.53564 14.531839,16.806737 V 6.5806508 -3.6454352 l 0.728903,-0.728904 0.728904,-0.728903 h 53.424338 53.424346 l 0.7289,0.728903 0.7289,0.728904 V 6.5806508 16.806737 l -0.7289,0.728903 -0.7289,0.728904 H 69.413984 15.989646 Z m 20.412865,-3.464818 c 0.325409,-0.243107 0.790559,-0.708426 1.033665,-1.034042 0.421227,-0.564187 0.442013,-0.8678 0.442013,-6.4561292 0,-5.58832904 -0.02079,-5.89194204 -0.442013,-6.45612904 -0.243106,-0.325616 -0.708256,-0.790935 -1.033665,-1.034042 -0.564779,-0.42193696 -0.904979,-0.44463896 -7.490172,-0.49983496 -7.71404,-0.06466 -7.899088,-0.03486 -8.877293,1.42942096 -0.476148,0.712752 -0.486635,0.854134 -0.486635,6.56058504 0,5.7064502 0.01049,5.8478332 0.486635,6.5605842 0.978205,1.464283 1.163253,1.494079 8.877293,1.429422 6.585193,-0.0552 6.925393,-0.0779 7.490172,-0.499835 z M 24.179091,6.5806508 c 0,-2.417172 0.04278,-4.394859 0.09506,-4.394859 0.07808,0 7.198406,4.238526 7.347026,4.373474 0.05983,0.05433 -7.177612,4.4162432 -7.327584,4.4162432 -0.06298,0 -0.1145,-1.9776862 -0.1145,-4.3948582 z m 34.63535,4.7981302 c 1.401255,-0.35284 2.238591,-1.3840832 2.238591,-2.7569932 0,-1.532713 -0.520527,-2.030769 -2.894175,-2.769234 -1.727532,-0.537451 -1.929451,-0.654158 -1.929451,-1.115195 0,-0.474802 0.0833,-0.514925 1.069029,-0.514925 0.959741,0 1.098477,0.06144 1.357099,0.60104 0.256887,0.535979 0.384837,0.593996 1.181996,0.535959 0.774486,-0.05639 0.901679,-0.136694 0.951939,-0.60104 0.07933,-0.73293 -0.642129,-1.831669 -1.49562,-2.277738 -1.044403,-0.545849 -3.109225,-0.5009 -4.0628,0.08844 -0.89042,0.55031 -1.252668,1.253093 -1.252668,2.430258 0,1.278047 0.778248,1.948507 3.074913,2.649033 1.67638,0.511327 1.855904,0.617188 1.855904,1.094376 0,1.177789 -2.621469,1.144595 -2.918017,-0.03695 -0.123242,-0.491036 -0.222772,-0.53298 -1.125667,-0.47438 -1.163559,0.07552 -1.320218,0.39614 -0.765119,1.565925 0.388282,0.8182442 1.228742,1.3740452 2.450586,1.6205892 1.110759,0.224129 1.22572,0.222139 2.26346,-0.03917 z m 7.645115,0.01606 c 1.453391,-0.403648 2.740045,-1.8539162 2.740045,-3.0884792 0,-0.501774 -0.07618,-0.546604 -0.928808,-0.546604 -0.838052,0 -0.979543,0.07855 -1.448061,0.803937 -0.812095,1.25733 -2.246262,1.242195 -2.849995,-0.03008 -0.631765,-1.331344 -0.333255,-3.752469 0.518885,-4.20852 0.998762,-0.534522 2.564145,0.06931 2.564145,0.989092 0,0.279825 0.212762,0.328168 1.1794,0.267979 l 1.179402,-0.07344 -2.93e-4,2.851783 -2.92e-4,2.8517832 1.125513,-0.0648 1.125512,-0.0648 V 9.5192078 7.9557208 l 1.286301,0.0628 1.2863,0.0628 0.06299,1.55428 0.06299,1.5542792 h 1.062525 1.062525 V 9.3829348 c 0,-1.244945 -0.09144,-1.89838 -0.29398,-2.100925 -0.249055,-0.249051 -0.232672,-0.369696 0.107188,-0.789405 0.501678,-0.619547 0.539281,-2.299176 0.06658,-2.974048 -0.646954,-0.923655 -1.389421,-1.118394 -4.264008,-1.118394 h -2.690439 l -0.0094,1.447087 -0.0094,1.447088 -0.303208,-0.857534 c -1.08672,-3.073681 -5.739371,-3.193244 -7.195677,-0.184913 -0.684829,1.414665 -0.692545,3.664209 -0.01734,5.054051 0.515472,1.0610412 1.484206,1.8228052 2.680993,2.1081972 0.954124,0.227525 1.012985,0.226927 1.899599,-0.01931 z m 5.275902,-6.2076842 0.08178,-0.857533 h 1.256239 c 1.307897,0 1.785074,0.333919 1.531787,1.071917 -0.177223,0.516363 -0.508616,0.636381 -1.766811,0.639867 l -1.184773,0.0033 z m 35.175982,5.8219442 c 0.97824,-0.504476 1.57539,-1.6136892 1.44325,-2.6808622 -0.1538,-1.242041 -0.82115,-1.787935 -3.02215,-2.472146 -1.73748,-0.540118 -1.93879,-0.656222 -1.93879,-1.118179 0,-0.47547 0.083,-0.515482 1.06903,-0.515482 0.95479,0 1.09923,0.063 1.3516,0.589554 0.23536,0.491067 0.41948,0.589555 1.10215,0.589555 1.01771,0 1.2961,-0.321072 1.05339,-1.214929 -0.67819,-2.497744 -5.39311,-2.921475 -6.50215,-0.58435 -0.96737,2.03857 0.14795,3.479211 3.21575,4.153758 1.21519,0.267195 1.69549,0.719279 1.3835,1.302227 -0.47571,0.888883 -2.36294,0.668204 -2.8175,-0.32946 -0.20845,-0.457479 -0.38975,-0.540263 -1.18321,-0.540263 -0.62706,0 -0.97708,0.10435 -1.05809,0.315446 -0.17263,0.449871 0.5674,1.8326262 1.24614,2.3284052 1.14164,0.833916 3.22909,0.91313 4.65708,0.176726 z M 45.831812,6.7950338 v -4.394858 h -1.179108 -1.179109 v 4.251936 c 0,2.338565 0.06432,4.3162512 0.142923,4.3948582 0.07861,0.07861 0.609205,0.142923 1.179109,0.142923 h 1.036185 z m 2.619392,1.952335 0.0604,-2.442524 1.523129,2.388928 1.52313,2.3889282 0.995875,0.06534 0.995875,0.06534 V 6.8067808 2.4001758 H 52.59191 51.634206 l -0.06062,2.391466 -0.06062,2.391467 -1.419141,-2.337871 -1.419143,-2.337871 -1.207053,-0.06429 -1.207056,-0.0643 v 4.405558 4.4055572 H 47.325685 48.3908 Z M 83.77767,10.225168 V 9.2604428 h -2.251025 -2.251026 v -0.857533 -0.857534 h 2.036643 2.036642 v -0.964725 -0.964725 h -2.036642 -2.036643 v -0.63565 -0.635651 l 2.19743,-0.0611 2.19743,-0.0611 0.0783,-0.750341 c 0.06484,-0.621295 0.32293,-0.03137 1.500684,3.430133 l 1.42238,4.1804752 h 1.052607 1.052608 l 1.359205,-4.0499792 c 0.747564,-2.227488 1.359206,-4.181057 1.359206,-4.341263 0,-0.206281 -0.310118,-0.291283 -1.062711,-0.291283 h -1.062706 l -0.665322,2.19743 c -0.874579,2.888566 -1.030987,3.329443 -1.051233,2.963204 -0.0093,-0.168378 -0.356998,-1.395518 -0.772642,-2.726978 l -0.755719,-2.420836 -4.55027,0.04719 -4.550272,0.04719 -0.0585,4.066682 c -0.03217,2.236675 -0.01108,4.1902442 0.04687,4.3412632 0.07939,0.206877 0.926372,0.274581 3.435039,0.274581 h 3.329669 z m 8.121239,0.107191 0.256924,-0.8575332 h 1.376281 1.376281 l 0.256924,0.8575332 0.256923,0.857534 h 1.145174 c 0.629846,0 1.14607,-0.07235 1.147163,-0.160788 0.0011,-0.08843 -0.650096,-2.0689092 -1.447087,-4.4010592 l -1.449078,-4.240273 -1.263033,0.0598 -1.263033,0.0598 -1.461765,4.073284 c -0.803969,2.240306 -1.465629,4.1938742 -1.470354,4.3412632 -0.0058,0.18201 0.358785,0.267979 1.136583,0.267979 h 1.145174 z m 1.006232,-3.2693452 c 0.08375,-0.2653 0.259312,-0.792662 0.390146,-1.171916 l 0.237884,-0.689554 0.346506,1.171916 0.346505,1.171916 h -0.736651 c -0.666128,0 -0.722075,-0.04618 -0.58439,-0.482362 z M 115.50642,10.225168 V 9.2604428 h -2.35822 -2.35822 v -0.857533 -0.857534 h 2.03664 2.03665 v -0.964725 -0.964725 h -2.03665 -2.03664 v -0.63565 -0.635651 l 2.19743,-0.0611 2.19743,-0.0611 0.0659,-0.911129 0.0659,-0.911129 h -3.33527 -3.33527 v 4.394859 4.3948582 h 3.43013 3.43014 z M 100.92835,7.1166088 v -0.857533 h -1.822268 -1.822259 v 0.714611 c 0,0.393036 0.06432,0.778926 0.142923,0.857534 0.07861,0.07861 0.898622,0.142922 1.822259,0.142922 h 1.679345 z"
       id="path2027"
       inkscape:connector-curvature="0" />
  </g>
</svg>
