<?xml version="1.0" encoding="UTF-8" standalone="no"?>
<!-- Created with Inkscape (http://www.inkscape.org/) -->

<svg
   xmlns:dc="http://purl.org/dc/elements/1.1/"
   xmlns:cc="http://creativecommons.org/ns#"
   xmlns:rdf="http://www.w3.org/1999/02/22-rdf-syntax-ns#"
   xmlns:svg="http://www.w3.org/2000/svg"
   xmlns="http://www.w3.org/2000/svg"
   xmlns:sodipodi="http://sodipodi.sourceforge.net/DTD/sodipodi-0.dtd"
   xmlns:inkscape="http://www.inkscape.org/namespaces/inkscape"
   width="150.43452mm"
   height="150.43452mm"
   viewBox="0 0 150.43452 150.43452"
   version="1.1"
   id="svg2736"
   inkscape:version="0.92.5 (2060ec1f9f, 2020-04-08)"
   sodipodi:docname="facebook.svg">
  <defs
     id="defs2730" />
  <sodipodi:namedview
     id="base"
     pagecolor="#ffffff"
     bordercolor="#666666"
     borderopacity="1.0"
     inkscape:pageopacity="0.0"
     inkscape:pageshadow="2"
     inkscape:zoom="1.4"
     inkscape:cx="162.42764"
     inkscape:cy="171.31233"
     inkscape:document-units="mm"
     inkscape:current-layer="layer1"
     showgrid="false"
     inkscape:window-width="1920"
     inkscape:window-height="1016"
     inkscape:window-x="0"
     inkscape:window-y="27"
     inkscape:window-maximized="1" />
  <metadata
     id="metadata2733">
    <rdf:RDF>
      <cc:Work
         rdf:about="">
        <dc:format>image/svg+xml</dc:format>
        <dc:type
           rdf:resource="http://purl.org/dc/dcmitype/StillImage" />
        <dc:title></dc:title>
      </cc:Work>
    </rdf:RDF>
  </metadata>
  <g
     inkscape:label="Camada 1"
     inkscape:groupmode="layer"
     id="layer1"
     transform="translate(-53.672619,70.39286)">
    <g
       id="g2687"
       transform="matrix(1.1074171,0,0,1.1074171,-232.20522,-113.93791)"
       style="fill:#f3f3f3;fill-opacity:1">
      <path
         style="fill:#f3f3f3;stroke-width:0.26458332;fill-opacity:1"
         d="m 310.90006,174.43075 c -0.37841,-0.29766 -0.81052,-0.98227 -0.96024,-1.52135 -0.1786,-0.64303 -0.27273,-10.55286 -0.2737,-28.81192 l -10e-4,-27.83177 -9.25567,-0.0818 -9.25568,-0.0818 -0.86463,-0.86474 -0.86464,-0.86473 -0.0823,-11.57068 c -0.0881,-12.374786 -0.0254,-13.119705 1.18271,-14.070033 0.66679,-0.524494 1.01108,-0.543361 9.91551,-0.543361 h 9.22473 l 0.002,-7.342187 c 0.004,-11.624249 0.50928,-16.354907 2.27247,-21.262254 3.68652,-10.260555 11.18386,-16.796359 22.1991,-19.352121 2.18779,-0.507612 3.36633,-0.560952 14.50656,-0.656553 10.90881,-0.09362 12.19181,-0.06048 12.78824,0.330319 1.39714,0.915439 1.44106,1.343819 1.35733,13.23848 l -0.0771,10.957593 -0.86463,0.864716 -0.86463,0.864716 -8.52808,0.13493 c -8.17667,0.129371 -8.58245,0.159885 -9.8477,0.740529 -2.3266,1.067718 -3.29584,2.388809 -3.81567,5.200798 -0.16415,0.888018 -0.28866,4.735983 -0.28866,8.921294 v 7.35974 h 10.81223 c 10.49175,0 10.83263,0.01603 11.50026,0.541202 0.37842,0.297659 0.81053,0.982269 0.96025,1.521355 0.16647,0.599395 0.27279,5.2746 0.2737,12.035007 0.002,12.04653 -0.0358,12.38175 -1.48569,13.33238 -0.67828,0.44471 -1.59497,0.48982 -11.39918,0.56102 l -10.66157,0.0774 v 28.31653 c 0,20.33434 -0.0833,28.47945 -0.29555,28.89445 -0.78996,1.54468 -0.29379,1.49167 -14.02242,1.49808 -12.29551,0.006 -12.6147,-0.007 -13.2862,-0.53532 z"
         id="path2701"
         inkscape:connector-curvature="0" />
      <path
         style="fill:#f3f3f3;stroke-width:0.26458332;fill-opacity:1"
         d="m 310.77958,174.19411 c -0.42781,-0.42782 -0.85369,-1.15708 -0.94639,-1.62058 -0.0927,-0.4635 -0.16855,-13.38893 -0.16855,-28.72319 v -27.88047 h -9.20154 c -10.20318,0 -10.06354,0.0226 -10.80244,-1.74587 -0.53458,-1.27941 -0.54187,-22.992642 -0.008,-24.27 0.73818,-1.766731 0.72986,-1.765374 10.83783,-1.765374 h 9.10056 l 0.15437,-9.723437 c 0.0849,-5.34789 0.28908,-10.606786 0.45371,-11.686431 1.69999,-11.148253 7.49409,-19.572692 16.42885,-23.887061 2.81612,-1.359834 4.12509,-1.818502 7.51077,-2.631807 2.21561,-0.532231 3.21243,-0.579691 14.33012,-0.682269 13.3439,-0.12312 13.25306,-0.133868 14.00114,1.656541 0.54674,1.308531 0.55303,21.412435 0.007,22.719009 -0.70615,1.690044 -0.94354,1.745082 -7.5613,1.753042 -10.05864,0.0121 -12.71204,0.470501 -14.50343,2.505629 -1.65571,1.880994 -1.71361,2.245328 -1.83951,11.576264 l -0.11334,8.40052 h 10.5933 c 11.27187,0 11.53758,0.0278 12.40043,1.297551 0.4239,0.623795 0.47424,1.694463 0.54851,11.667033 0.045,6.03911 0.005,11.50558 -0.0888,12.1477 -0.11329,0.77533 -0.42277,1.41967 -0.92133,1.91823 l -0.75075,0.75073 h -10.86478 -10.86479 l -0.0696,28.72904 -0.0696,28.72903 -0.86407,0.77201 -0.86406,0.772 H 324.1007 311.55752 Z"
         id="path2699"
         inkscape:connector-curvature="0" />
      <path
         style="fill:#f3f3f3;stroke-width:0.26458332;fill-opacity:1"
         d="m 310.74451,174.15903 -0.81293,-0.81292 -0.0673,-28.62197 -0.0673,-28.62197 -9.43143,-0.1323 c -10.55346,-0.14802 -10.25046,-0.0894 -10.80624,-2.09018 -0.36492,-1.31371 -0.35181,-22.334266 0.0148,-23.654307 0.1877,-0.675949 0.5561,-1.174702 1.123,-1.520365 0.79278,-0.483388 1.3982,-0.514474 10.03793,-0.515403 l 9.19426,-9.89e-4 0.002,-9.591145 c 10e-4,-7.168587 0.10185,-10.259438 0.3986,-12.236979 1.86738,-12.444139 9.52234,-21.805967 20.65105,-25.255718 4.45318,-1.380428 7.02067,-1.599564 18.72873,-1.5985 10.31705,9.37e-4 10.93199,0.02795 11.73143,0.515404 0.5669,0.345662 0.9353,0.844414 1.123,1.520365 0.37176,1.338758 0.37803,20.758981 0.007,22.094435 -0.14972,0.539084 -0.58183,1.223694 -0.96025,1.521354 -0.64742,0.509263 -1.04895,0.541605 -6.8039,0.548028 -11.15357,0.01245 -13.66387,0.606383 -15.22544,3.60231 -0.90325,1.73288 -1.07692,3.567528 -1.07692,11.375934 v 7.504512 h 10.57088 c 11.24806,0 11.5153,0.02801 12.37801,1.297551 0.4233,0.622908 0.47445,1.684007 0.54969,11.402453 0.0963,12.43395 0.0362,13.28296 -1.01331,14.33251 l -0.74874,0.74873 h -10.86478 -10.86479 l -0.0696,28.72904 -0.0696,28.72903 -0.86407,0.77201 -0.86406,0.772 h -12.54319 -12.54318 z"
         id="path2697"
         inkscape:connector-curvature="0" />
      <path
         style="fill:#f3f3f3;stroke-width:0.26458332;fill-opacity:1"
         d="m 311.38444,174.66486 c -0.29105,-0.16006 -0.73488,-0.54339 -0.98631,-0.85185 -0.42678,-0.5236 -0.45753,-2.46308 -0.46302,-29.20199 l -0.006,-28.64115 h -9.41306 -9.41306 l -0.75074,-0.75073 c -0.49856,-0.49856 -0.80804,-1.1429 -0.92132,-1.91823 -0.0938,-0.64212 -0.13379,-6.10859 -0.0888,-12.1477 0.0743,-9.97257 0.12461,-11.043238 0.54851,-11.667033 0.85197,-1.253728 1.22023,-1.297551 10.90414,-1.297551 h 9.097 l 0.10014,-10.649479 c 0.10864,-11.554189 0.24121,-12.789276 1.88685,-17.578408 3.07549,-8.950277 9.57378,-15.538234 18.25576,-18.507678 4.98349,-1.70447 7.34253,-1.937521 19.66807,-1.94302 11.32037,-0.0051 11.58057,0.02198 12.44416,1.292804 0.4231,0.622621 0.47398,1.669547 0.54426,11.199617 0.0838,11.36406 7.9e-4,12.264895 -1.20862,13.123427 -0.66325,0.470801 -1.35672,0.522246 -8.65849,0.642333 -8.62223,0.141803 -9.84225,0.311941 -11.75826,1.639731 -1.19976,0.831437 -2.00134,2.290455 -2.39301,4.355721 -0.14769,0.778759 -0.26852,4.792959 -0.26852,8.92044 v 7.504512 h 10.65675 c 9.60765,0 10.72115,0.04439 11.31094,0.450879 1.33762,0.921919 1.29829,0.516202 1.30722,13.485535 l 0.008,12.21663 -0.8141,0.8141 -0.81411,0.8141 h -10.82408 -10.82408 l -0.0696,28.72904 -0.0696,28.72903 -0.86407,0.77201 -0.86406,0.772 -12.3651,-0.008 c -8.4804,-0.006 -12.53134,-0.0995 -12.89426,-0.29905 z"
         id="path2695"
         inkscape:connector-curvature="0" />
      <path
         style="fill:#f3f3f3;stroke-width:0.26458332;fill-opacity:1"
         d="m 311.61942,174.71264 c -0.30733,-0.12417 -0.81334,-0.54939 -1.12448,-0.94495 l -0.56571,-0.71918 v -28.53932 -28.53932 h -9.14552 c -9.50896,0 -9.85243,-0.0369 -10.75849,-1.15544 -0.41815,-0.51621 -0.45764,-1.60389 -0.46302,-12.75144 -0.006,-12.011544 0.002,-12.195657 0.54869,-12.782349 0.30501,-0.327396 0.84854,-0.707033 1.20785,-0.84364 0.3605,-0.137065 4.67709,-0.248375 9.63188,-0.248375 h 8.97861 l 0.005,-9.326562 c 0.005,-9.851395 0.21835,-12.53767 1.32836,-16.734895 2.61081,-9.872157 9.29023,-17.241629 18.64283,-20.568821 2.23706,-0.795833 5.04628,-1.416607 8.06285,-1.781702 2.81553,-0.340762 21.96429,-0.360016 22.85077,-0.02298 0.3593,0.136606 0.90283,0.516244 1.20785,0.84364 0.54529,0.585294 0.55458,0.786573 0.55458,12.016114 v 11.42085 l -0.63891,0.689392 c -0.3514,0.379166 -0.91694,0.749988 -1.25677,0.824048 -0.33983,0.07406 -4.07068,0.184158 -8.29078,0.244661 -4.2201,0.0605 -8.13111,0.23295 -8.69111,0.383215 -1.95497,0.524568 -3.40686,1.663499 -4.26942,3.349114 l -0.7978,1.559079 -0.0827,8.543866 -0.0827,8.543869 10.88637,0.0747 10.88637,0.0747 0.77183,0.864071 0.77184,0.864068 v 11.915217 c 0,12.92427 -0.0117,13.03519 -1.44782,13.68951 -0.50088,0.22822 -3.63248,0.31609 -11.26463,0.31609 h -10.57088 v 28.18663 c 0,23.76184 -0.059,28.3279 -0.37604,29.08659 -0.72755,1.74129 -0.64146,1.73074 -13.96447,1.71209 -6.59204,-0.009 -12.23698,-0.11836 -12.5443,-0.24254 z"
         id="path2693"
         inkscape:connector-curvature="0" />
      <path
         style="fill:#f3f3f3;stroke-width:0.26458332;fill-opacity:1"
         d="m 311.88034,174.78954 c -0.30934,-0.0607 -0.84512,-0.41124 -1.19063,-0.77899 l -0.62819,-0.66863 -0.0696,-28.68603 -0.0696,-28.68602 h -9.01851 c -9.80909,0 -10.40827,-0.0803 -11.0462,-1.4804 -0.211,-0.46308 -0.30125,-4.22328 -0.30125,-12.55079 V 90.049057 l 0.77175,-0.864068 0.77175,-0.864071 9.41471,-0.07876 9.41471,-0.07876 0.005,-9.049368 c 0.005,-9.483328 0.24794,-12.633298 1.27796,-16.59814 3.46137,-13.32375 13.44718,-21.512488 27.74744,-22.753947 1.96122,-0.17026 7.30646,-0.257994 12.72946,-0.208934 l 9.34857,0.08457 0.77174,0.86407 0.77175,0.86407 v 11.095876 c 0,7.325175 -0.0963,11.307256 -0.28341,11.717897 -0.60845,1.335392 -0.87014,1.377063 -9.63847,1.534833 -9.4044,0.169215 -10.276,0.329164 -12.1858,2.236238 -1.79672,1.794169 -1.9694,2.868435 -1.9694,12.251766 v 7.986289 l 10.38489,5.29e-4 c 9.35827,2.65e-4 10.47608,0.04614 11.30726,0.463021 1.62175,0.81339 1.59843,0.603136 1.52537,13.752102 l -0.0665,11.96658 -0.73339,0.73342 -0.73338,0.73342 -10.83751,0.0747 -10.83751,0.0746 -0.0708,28.50035 c -0.0671,27.03537 -0.0955,28.53673 -0.55125,29.20816 -0.26427,0.38929 -0.84758,0.83577 -1.29626,0.99218 -0.78092,0.27224 -23.37205,0.36544 -24.71486,0.10197 z"
         id="path2691"
         inkscape:connector-curvature="0" />
      <path
         style="fill:#f3f3f3;stroke-width:0.26458332;fill-opacity:1"
         d="m 311.78131,174.62629 c -0.63079,-0.21511 -1.07353,-0.61104 -1.38865,-1.24183 -0.43174,-0.86425 -0.46264,-2.80994 -0.46302,-29.1577 l -4.1e-4,-28.23166 -9.38703,-0.0788 -9.38702,-0.0788 -0.73329,-0.73342 -0.73329,-0.73342 -0.0696,-11.96658 c -0.0668,-11.489749 -0.0489,-12.000194 0.44926,-12.810234 0.34745,-0.564989 0.85111,-0.935932 1.52478,-1.123006 0.6113,-0.169751 4.40544,-0.279921 9.67105,-0.280818 l 8.66511,-0.0015 7.9e-4,-8.135937 c 0.001,-9.347705 0.27085,-13.091813 1.22503,-16.999478 1.52916,-6.262419 4.28914,-11.151333 8.58861,-15.213541 5.199,-4.912096 11.36416,-7.415659 19.85684,-8.063516 4.70278,-0.358747 19.64024,-0.350591 20.94394,0.01144 0.67353,0.187034 1.17749,0.558132 1.52505,1.123003 0.49731,0.808247 0.51616,1.312637 0.44925,12.016513 l -0.0697,11.172853 -0.73315,0.733396 -0.73315,0.733396 -8.39498,0.154527 c -4.67213,0.086 -8.75382,0.276694 -9.20418,0.430014 -2.38361,0.81148 -3.81456,2.199989 -4.50632,4.372668 -0.36099,1.133798 -0.46712,2.905686 -0.57076,9.528728 l -0.12732,8.135937 10.41514,0.01492 c 11.60236,0.01664 11.97558,0.06274 12.72983,1.572567 0.41876,0.838272 0.46265,1.998885 0.46302,12.245478 5.3e-4,12.68758 -0.021,12.85883 -1.70136,13.56092 -0.76088,0.31793 -2.80206,0.38736 -11.38661,0.38736 h -10.45954 v 28.67122 28.67121 l -0.66521,0.66521 c -0.36587,0.36587 -1.0356,0.73929 -1.48828,0.82983 -1.59245,0.31849 -23.31448,0.15668 -24.30484,-0.18105 z"
         id="path2689"
         inkscape:connector-curvature="0" />
    </g>
  </g>
</svg>
