<?xml version="1.0" encoding="UTF-8" standalone="no"?>
<!-- Created with Inkscape (http://www.inkscape.org/) -->

<svg
   xmlns:dc="http://purl.org/dc/elements/1.1/"
   xmlns:cc="http://creativecommons.org/ns#"
   xmlns:rdf="http://www.w3.org/1999/02/22-rdf-syntax-ns#"
   xmlns:svg="http://www.w3.org/2000/svg"
   xmlns="http://www.w3.org/2000/svg"
   xmlns:sodipodi="http://sodipodi.sourceforge.net/DTD/sodipodi-0.dtd"
   xmlns:inkscape="http://www.inkscape.org/namespaces/inkscape"
   width="150.43452mm"
   height="150.43452mm"
   viewBox="0 0 150.43452 150.43452"
   version="1.1"
   id="svg2736"
   inkscape:version="0.92.5 (2060ec1f9f, 2020-04-08)"
   sodipodi:docname="instagram.svg">
  <defs
     id="defs2730" />
  <sodipodi:namedview
     id="base"
     pagecolor="#ffffff"
     bordercolor="#666666"
     borderopacity="1.0"
     inkscape:pageopacity="0.0"
     inkscape:pageshadow="2"
     inkscape:zoom="0.35"
     inkscape:cx="-693.0695"
     inkscape:cy="82.376703"
     inkscape:document-units="mm"
     inkscape:current-layer="layer1"
     showgrid="false"
     inkscape:window-width="1920"
     inkscape:window-height="1016"
     inkscape:window-x="0"
     inkscape:window-y="27"
     inkscape:window-maximized="1" />
  <metadata
     id="metadata2733">
    <rdf:RDF>
      <cc:Work
         rdf:about="">
        <dc:format>image/svg+xml</dc:format>
        <dc:type
           rdf:resource="http://purl.org/dc/dcmitype/StillImage" />
        <dc:title></dc:title>
      </cc:Work>
    </rdf:RDF>
  </metadata>
  <g
     inkscape:label="Camada 1"
     inkscape:groupmode="layer"
     id="layer1"
     transform="translate(-53.672619,70.39286)">
    <g
       id="g2714"
       transform="matrix(1.102549,0,0,1.102549,22.216534,-202.38204)"
       style="fill:#f3f3f3;fill-opacity:1">
      <path
         style="fill:#f3f3f3;stroke-width:0.26458332;fill-opacity:1"
         d="m 60.503655,255.29805 c -16.110862,-2.72031 -28.488901,-15.148 -31.095781,-31.22051 -0.577433,-3.56012 -0.577433,-68.6869 0,-72.24702 2.616919,-16.13441 15.085776,-28.60327 31.220183,-31.22019 3.560119,-0.57743 68.686903,-0.57743 72.247023,0 16.13441,2.61692 28.60327,15.08578 31.22019,31.22019 0.57743,3.56012 0.57743,68.6869 0,72.24702 -2.61692,16.13441 -15.08578,28.60327 -31.22019,31.22019 -3.27933,0.53189 -69.221502,0.53218 -72.371425,2.6e-4 z m 72.892705,-12.5067 c 4.89737,-1.36684 9.92115,-4.57282 13.0853,-8.35054 1.971,-2.35319 4.31761,-6.93126 5.11259,-9.97428 l 0.58753,-2.24896 v -34.26354 -34.26354 l -0.58753,-2.24896 c -0.79498,-3.04302 -3.14159,-7.62109 -5.11259,-9.97428 -3.22157,-3.84627 -8.31512,-7.06509 -13.21759,-8.35273 l -2.24896,-0.5907 H 96.75157 62.48803 l -2.248958,0.5907 c -4.902467,1.28764 -9.996025,4.50646 -13.217596,8.35273 -1.971001,2.35319 -4.317609,6.93126 -5.112583,9.97428 l -0.587529,2.24896 v 34.26354 34.26354 l 0.590693,2.24896 c 2.4505,9.32985 9.950493,16.50045 19.385348,18.53395 2.121596,0.45727 4.166878,0.4818 36.115623,0.43317 l 33.866662,-0.0515 z M 92.518237,222.71841 c -3.519612,-0.64337 -5.187265,-1.03521 -6.87818,-1.61614 -11.920753,-4.09544 -20.542206,-13.85755 -23.199665,-26.26907 -0.36163,-1.68898 -0.481529,-3.40185 -0.481529,-6.87917 0,-3.47732 0.119899,-5.19019 0.481529,-6.87917 2.986672,-13.94909 13.482914,-24.44534 27.432012,-27.43201 3.160519,-0.6767 10.597816,-0.6767 13.758336,0 13.94909,2.98667 24.44534,13.48292 27.43201,27.43201 0.36163,1.68898 0.48153,3.40185 0.48153,6.87917 0,3.47732 -0.1199,5.19019 -0.48153,6.87917 -2.96273,13.83728 -13.38755,24.34553 -27.16743,27.38484 -1.92154,0.42382 -9.880859,0.77388 -11.377083,0.50037 z m 9.789583,-12.68005 c 2.07572,-0.54168 5.57371,-2.12991 7.32189,-3.32443 4.34568,-2.96936 7.85161,-8.02634 9.2456,-13.33594 0.67752,-2.58062 0.67752,-8.2673 0,-10.84792 -1.78854,-6.81239 -6.322,-12.26036 -12.64014,-15.18994 -3.43956,-1.59484 -5.34592,-1.99609 -9.4836,-1.99609 -4.137684,0 -6.044043,0.40125 -9.483598,1.99609 -5.144327,2.38531 -8.75309,6.00182 -11.151403,11.17534 -1.573218,3.39366 -1.974985,5.31374 -1.974985,9.43856 0,4.13768 0.401246,6.04404 1.99609,9.4836 3.142629,6.77761 8.893241,11.3028 16.380563,12.88995 2.225011,0.47165 7.467441,0.31677 9.789583,-0.28922 z m 29.42861,-49.6562 c -2.84357,-0.42151 -5.38704,-2.32468 -6.6446,-4.97188 -0.577,-1.21459 -0.6913,-1.82708 -0.6913,-3.70416 0,-1.8805 0.11493,-2.49412 0.7015,-3.74528 1.73559,-3.70204 5.76418,-5.78309 9.64465,-4.98215 2.0178,0.41648 3.16635,1.01406 4.57332,2.37948 1.75102,1.69931 2.54303,3.63512 2.54303,6.21565 0,2.6728 -0.60058,4.30493 -2.22187,6.03823 -2.07996,2.22364 -4.90726,3.21443 -7.90473,2.77011 z"
         id="path2728"
         inkscape:connector-curvature="0" />
      <path
         style="fill:#f3f3f3;stroke-width:0.26458332;fill-opacity:1"
         d="M 60.635947,255.27884 C 48.81693,253.3007 38.803251,246.08113 33.264971,235.54516 c -1.97041,-3.74848 -3.132601,-7.26443 -3.837004,-11.60797 -0.612284,-3.77552 -0.612284,-68.1908 0,-71.96632 1.309919,-8.07732 4.85059,-15.01898 10.586026,-20.75442 5.735436,-5.73543 12.677095,-9.2761 20.754417,-10.58602 3.775517,-0.61229 68.1908,-0.61229 71.96632,0 8.07732,1.30992 15.01898,4.85059 20.75442,10.58602 5.73543,5.73544 9.2761,12.6771 10.58602,20.75442 0.61229,3.77552 0.61229,68.1908 0,71.96632 -1.30992,8.07732 -4.85059,15.01898 -10.58602,20.75442 -5.73544,5.73543 -12.6771,9.2761 -20.75442,10.58602 -2.17576,0.35285 -7.04478,0.4041 -36.247743,0.38154 -26.855895,-0.0207 -34.165965,-0.0983 -35.85104,-0.38033 z m 72.760413,-12.45795 c 4.83817,-1.42729 8.23057,-3.39736 11.52764,-6.69443 3.40856,-3.40856 5.54874,-7.1876 6.7532,-11.92452 0.48357,-1.90174 0.50458,-3.4112 0.50458,-36.24791 0,-32.83671 -0.021,-34.34617 -0.50458,-36.24791 -1.20446,-4.73692 -3.34464,-8.51596 -6.7532,-11.92452 -3.40856,-3.40856 -7.1876,-5.54874 -11.92452,-6.7532 -1.90174,-0.48356 -3.4112,-0.50458 -36.24791,-0.50458 -32.836711,0 -34.346175,0.021 -36.247915,0.50458 -4.73692,1.20446 -8.515953,3.34464 -11.924514,6.7532 -3.408562,3.40856 -5.54874,7.1876 -6.753206,11.92452 -0.483559,1.90174 -0.504571,3.4112 -0.504571,36.24791 0,32.83671 0.02101,34.34617 0.504571,36.24791 2.158859,8.49036 8.365912,15.33333 16.29647,17.96606 4.097615,1.36029 2.722893,1.31635 39.290623,1.25579 33.630382,-0.0557 34.158422,-0.0645 35.983332,-0.6029 z M 91.327612,222.46752 c -7.039176,-1.18939 -13.456499,-4.36512 -18.53507,-9.17241 -6.934123,-6.56373 -10.963843,-15.87775 -10.963843,-25.34108 0,-8.83271 3.465139,-17.4972 9.581795,-23.95903 6.563722,-6.93412 15.877743,-10.96384 25.341076,-10.96384 10.85572,0 21.34561,5.25581 27.93493,13.99639 2.0982,2.7832 4.62869,7.80905 5.5368,10.99672 2.41523,8.47797 1.76799,17.02286 -1.87242,24.72001 -5.0022,10.57645 -14.73658,17.84817 -26.43205,19.74511 -2.907745,0.47163 -7.729501,0.46167 -10.591218,-0.0219 z m 9.850378,-12.17716 c 4.46609,-0.92249 7.96176,-2.7537 11.24545,-5.89092 6.80363,-6.50015 8.89772,-16.03068 5.47522,-24.91859 -2.13275,-5.53852 -7.34834,-10.68654 -12.96151,-12.79356 -6.580488,-2.47013 -13.919352,-1.8315 -19.933762,1.73463 -2.415781,1.43239 -5.707647,4.61311 -7.326661,7.07928 -3.940302,6.00207 -4.766355,13.77999 -2.191899,20.63841 2.107433,5.61425 7.251703,10.82547 12.797681,12.96422 4.107029,1.58384 8.856371,2.02083 12.895481,1.18653 z m 28.74083,-50.40392 c -5.85267,-2.25079 -7.50474,-9.99909 -3.05631,-14.33432 2.19627,-2.14038 4.81614,-3.02228 7.63096,-2.56873 2.59023,0.41736 5.38008,2.41095 6.51786,4.65757 2.30516,4.5517 0.0191,10.47718 -4.72728,12.25302 -1.88931,0.70688 -4.51562,0.70377 -6.36523,-0.008 z"
         id="path2726"
         inkscape:connector-curvature="0" />
      <path
         style="fill:#f3f3f3;stroke-width:0.26458332;fill-opacity:1"
         d="m 61.032822,255.29405 c -8.859154,-1.32094 -16.715212,-5.60729 -22.712761,-12.39231 -4.79144,-5.42055 -7.877238,-12.1234 -8.913365,-19.36125 -0.560621,-3.91621 -0.560621,-67.25671 0,-71.17292 1.036127,-7.23785 4.121925,-13.9407 8.913365,-19.36125 6.03718,-6.82986 13.949883,-11.12379 22.845052,-12.39716 3.916212,-0.56063 67.256707,-0.56063 71.172917,0 8.89517,1.27337 16.80787,5.5673 22.84505,12.39716 4.79144,5.42055 7.87724,12.1234 8.91336,19.36125 0.56062,3.91621 0.56062,67.25671 0,71.17292 -1.27337,8.89517 -5.5673,16.80787 -12.39716,22.84505 -5.42055,4.79144 -12.1234,7.87724 -19.36125,8.91336 -3.65215,0.52282 -67.795563,0.51846 -71.305208,-0.005 z m 72.760408,-12.5221 c 8.83,-2.68969 15.24002,-9.15478 17.78351,-17.93632 l 0.60504,-2.08889 v -34.79271 -34.79271 l -0.60735,-2.11666 c -2.52159,-8.788 -9.09709,-15.35417 -17.94126,-17.91581 l -2.08889,-0.60503 H 96.75157 61.958863 l -2.088893,0.60503 c -8.844173,2.56164 -15.41967,9.12781 -17.941259,17.91581 l -0.607347,2.11666 v 34.79271 34.79271 l 0.605031,2.08889 c 2.005542,6.92422 6.414389,12.46379 12.538406,15.75408 2.177168,1.16974 5.290282,2.27688 7.405139,2.63356 0.795496,0.13416 16.369748,0.21956 35.67538,0.19562 l 34.26354,-0.0425 z M 91.724487,222.48572 C 82.858345,221.16373 74.796613,216.49067 69.371914,209.52884 56.10773,192.50615 60.89685,168.32744 79.66366,157.56916 c 14.753917,-8.45785 33.76846,-4.7279 44.37192,8.70412 10.16971,12.88258 10.16971,30.47892 0,43.3615 -7.66604,9.71102 -20.12808,14.66749 -32.311093,12.85094 z m 9.666193,-12.18464 c 4.93255,-1.01885 9.39595,-3.69839 12.7944,-7.68094 7.1478,-8.37634 7.1478,-20.95588 0,-29.33222 -4.52273,-5.30006 -10.53213,-8.08806 -17.43351,-8.08806 -6.901375,0 -12.910785,2.788 -17.433509,8.08806 -7.147805,8.37634 -7.147805,20.95588 0,29.33222 3.335835,3.90918 7.82262,6.63419 12.61982,7.66454 2.384454,0.51214 7.013898,0.52017 9.452799,0.0164 z m 28.90016,-50.24858 c -3.22795,-1.23677 -5.45217,-4.04927 -5.90424,-7.46583 -0.58781,-4.44251 2.83009,-8.88663 7.34983,-9.5566 4.03677,-0.59838 7.65424,1.37096 9.37581,5.10417 0.59185,1.28344 0.73319,1.96999 0.73795,3.58451 0.005,1.72873 -0.11067,2.23374 -0.86165,3.75921 -0.9453,1.92017 -2.31273,3.27499 -4.25396,4.21472 -1.51658,0.73417 -4.96423,0.92668 -6.44374,0.35982 z"
         id="path2724"
         inkscape:connector-curvature="0" />
      <path
         style="fill:#f3f3f3;stroke-width:0.26458332;fill-opacity:1"
         d="m 61.297405,255.28514 c -16.618336,-2.29876 -29.659943,-15.44045 -31.896754,-32.14153 -0.548028,-4.09183 -0.548028,-66.28733 0,-70.37916 1.107377,-8.2682 4.756294,-15.66084 10.628399,-21.53294 5.856068,-5.85607 13.287324,-9.52405 21.532938,-10.6284 4.091834,-0.54803 66.287332,-0.54803 70.379162,0 16.82083,2.25285 29.90849,15.34051 32.16134,32.16134 0.54803,4.09183 0.54803,66.28733 0,70.37916 -2.25285,16.82083 -15.34051,29.90849 -32.16134,32.16134 -3.92761,0.52603 -66.825226,0.5084 -70.643745,-0.0198 z m 67.782965,-11.77263 c 6.47027,-0.61357 11.77628,-3.10885 16.11884,-7.58027 4.2401,-4.36591 6.51576,-9.37415 7.11084,-15.64941 0.35994,-3.79563 0.35994,-60.86197 0,-64.6576 -0.59508,-6.27526 -2.87074,-11.28349 -7.11084,-15.64941 -4.34256,-4.47142 -9.64857,-6.9667 -16.11884,-7.58027 -3.79563,-0.35994 -60.861965,-0.35994 -64.657601,0 -6.470266,0.61357 -11.77628,3.10885 -16.11884,7.58027 -4.240103,4.36592 -6.515762,9.37415 -7.110842,15.64941 -0.359938,3.79563 -0.359938,60.86197 0,64.6576 0.613572,6.47027 3.108852,11.77628 7.580269,16.11884 4.211868,4.09049 9.441082,6.53445 15.169882,7.08988 3.347736,0.32458 61.737282,0.34337 65.137132,0.0209 z M 92.121362,222.48712 c -10.904601,-1.53751 -20.184398,-7.7699 -25.614438,-17.20288 -3.503613,-6.08642 -5.154785,-13.664 -4.453716,-20.43906 0.889508,-8.59615 4.168376,-15.58764 10.085126,-21.50439 4.587769,-4.58776 9.481332,-7.39423 15.878116,-9.10612 13.38365,-3.5817 28.01731,1.49696 36.55052,12.68499 5.12145,6.71482 7.73704,15.88946 6.88296,24.14322 -0.54882,5.30376 -2.01457,9.98411 -4.45371,14.22136 -7.06989,12.2817 -21.00965,19.15782 -34.874858,17.20288 z m 9.921878,-12.31904 c 8.2267,-1.96218 14.9602,-8.69568 16.92238,-16.92238 0.73194,-3.06876 0.73194,-7.51458 0,-10.58334 -1.56279,-6.55221 -6.15259,-12.25192 -12.24719,-15.20884 -3.32187,-1.61167 -6.14933,-2.24995 -9.96686,-2.24995 -3.817527,0 -6.644989,0.63828 -9.966862,2.24995 -6.094597,2.95692 -10.684395,8.65663 -12.247188,15.20884 -0.731941,3.06876 -0.731941,7.51458 0,10.58334 1.946817,8.16228 8.653239,14.91508 16.790092,16.90622 2.976404,0.72834 7.699838,0.73547 10.715628,0.0162 z m 28.26101,-50.24033 c -3.84398,-1.50304 -5.85089,-4.31333 -5.8713,-8.22163 -0.0483,-9.24863 12.43676,-12.13837 16.52906,-3.82574 1.37347,2.78993 1.16293,6.04514 -0.55915,8.645 -2.14203,3.23389 -6.64743,4.75182 -10.09861,3.40237 z"
         id="path2722"
         inkscape:connector-curvature="0" />
      <path
         style="fill:#f3f3f3;stroke-width:0.26458332;fill-opacity:1"
         d="m 62.48803,255.39678 c -8.558702,-0.89032 -16.108694,-4.53379 -22.381238,-10.80072 -6.395705,-6.38998 -9.910936,-13.78193 -10.812657,-22.73725 -0.375195,-3.72619 -0.375195,-64.08337 0,-67.80956 0.901721,-8.95532 4.416952,-16.34727 10.812657,-22.73725 6.399044,-6.39332 13.805153,-9.91575 22.74,-10.81541 3.726193,-0.37519 64.083368,-0.37519 67.809558,0 8.93672,0.89985 16.34611,4.42427 22.73725,10.81541 6.39114,6.39114 9.91556,13.80053 10.81541,22.73725 0.37519,3.72619 0.37519,64.08337 0,67.80956 -0.89985,8.93672 -4.42427,16.34611 -10.81541,22.73725 -6.39114,6.39114 -13.80053,9.91556 -22.73725,10.81541 -3.29442,0.33171 -64.966057,0.31843 -68.16832,-0.0147 z m 69.98229,-12.24513 c 9.73249,-2.28826 17.40651,-10.0614 19.49169,-19.74346 0.45489,-2.11217 0.48435,-4.26857 0.48435,-35.45416 0,-31.07314 -0.0308,-33.34961 -0.48017,-35.45416 -2.08805,-9.77985 -9.95422,-17.64436 -19.76046,-19.75628 -2.11217,-0.45489 -4.26857,-0.48435 -35.45416,-0.48435 -31.185587,0 -33.341994,0.0295 -35.454165,0.48435 -9.830918,2.11724 -17.639037,9.92536 -19.756276,19.75628 -0.454889,2.11217 -0.484348,4.26857 -0.484348,35.45416 0,31.18559 0.02946,33.34199 0.484348,35.45416 1.761998,8.18144 7.530686,15.10875 15.25836,18.32297 2.555605,1.06296 4.205726,1.48614 6.949955,1.78232 1.052473,0.11359 16.498741,0.18363 34.325043,0.15563 29.927023,-0.047 32.563563,-0.0867 34.395833,-0.51746 z M 93.282237,222.6269 C 78.10718,221.06179 65.750734,209.84378 62.590326,194.76273 c -0.797745,-3.80674 -0.797745,-9.81066 0,-13.6174 2.910969,-13.89076 13.461782,-24.44157 27.352544,-27.35254 3.806738,-0.79775 9.810662,-0.79775 13.6174,0 13.89076,2.91097 24.44157,13.46178 27.35254,27.35254 0.79775,3.80674 0.79775,9.81066 0,13.6174 -2.54672,12.15262 -11.0602,21.93094 -22.72233,26.09814 -4.15743,1.48557 -10.426807,2.22824 -14.908243,1.76603 z m 5.718291,-11.92352 c 16.093322,-1.79134 25.349972,-18.69627 18.115902,-33.08412 -2.11829,-4.21308 -5.82735,-7.91699 -10.05814,-10.04419 -14.331948,-7.20597 -31.2811,2.05881 -33.046355,18.06386 -1.346919,12.21209 7.818279,23.63243 20.093802,25.03799 1.091406,0.12496 2.103437,0.24168 2.248958,0.25936 0.145521,0.0177 1.336146,-0.0871 2.645833,-0.2329 z m 31.432452,-50.74252 c -2.5237,-0.90169 -4.36133,-2.54222 -5.26184,-4.69743 -2.44937,-5.86217 1.62459,-12.28856 7.79025,-12.28856 7.8678,0 11.8065,9.20176 6.34678,14.82763 -2.20142,2.26841 -5.9891,3.18954 -8.87519,2.15836 z"
         id="path2720"
         inkscape:connector-curvature="0" />
      <path
         style="fill:#f3f3f3;stroke-width:0.26458332;fill-opacity:1"
         d="m 63.943238,255.5183 c -11.057676,-0.82523 -21.195882,-6.45746 -27.775732,-15.43066 -3.09896,-4.22617 -5.637854,-10.37912 -6.664105,-16.15028 -0.517733,-2.91149 -0.517733,-69.05517 0,-71.96666 1.026251,-5.77116 3.565145,-11.92411 6.664105,-16.15028 5.892724,-8.03614 14.486263,-13.31596 24.600732,-15.11456 2.911491,-0.51773 69.055172,-0.51773 71.966662,0 10.11447,1.7986 18.70801,7.07842 24.60073,15.11456 3.09897,4.22617 5.63786,10.37912 6.66411,16.15028 0.51773,2.91149 0.51773,69.05517 0,71.96666 -1.7986,10.11447 -7.07842,18.70801 -15.11456,24.60073 -2.75005,2.01656 -7.80456,4.51773 -10.9909,5.43874 -5.57663,1.61192 -3.35693,1.52331 -39.55521,1.57913 -18.262864,0.0282 -33.740988,0.0112 -34.395832,-0.0377 z m 69.323872,-12.56915 c 4.82419,-1.32854 8.39133,-3.37175 11.74958,-6.73 3.35542,-3.35542 5.39578,-6.91584 6.73331,-11.74958 l 0.69636,-2.51658 V 187.95403 153.95507 L 151.75,151.43849 c -1.33753,-4.83374 -3.37789,-8.39416 -6.73331,-11.74958 -3.35542,-3.35542 -6.91584,-5.39578 -11.74958,-6.73331 l -2.51658,-0.69636 H 96.75157 62.752613 l -2.516579,0.69636 c -4.83374,1.33753 -8.394165,3.37789 -11.749583,6.73331 -3.355418,3.35542 -5.395784,6.91584 -6.733315,11.74958 l -0.696355,2.51658 v 33.99896 33.99896 l 0.696355,2.51658 c 1.337531,4.83374 3.377897,8.39416 6.733315,11.74958 4.050088,4.05009 9.072109,6.53372 14.729098,7.28425 0.909553,0.12068 16.477011,0.20127 34.594354,0.17911 l 32.940627,-0.0403 z M 94.634903,222.71279 c -7.919796,-0.60978 -15.11547,-3.57348 -20.747459,-8.5453 -7.723793,-6.81843 -11.872492,-15.9784 -11.872492,-26.21346 0,-7.22365 1.925019,-13.5106 6.03087,-19.69633 2.002317,-3.01661 6.023126,-7.02723 9.077875,-9.05485 6.073217,-4.03118 12.434615,-5.96416 19.627873,-5.96416 10.25633,0 19.40124,4.13445 26.21346,11.85121 7.59538,8.60391 10.39084,20.77881 7.35382,32.02767 -3.53991,13.11149 -14.78413,23.17689 -28.14332,25.19281 -2.210559,0.33358 -5.886653,0.52975 -7.540627,0.40241 z m 7.265887,-12.45102 c 8.51914,-1.92041 15.26045,-8.7439 17.23166,-17.44174 0.62336,-2.75055 0.62336,-6.98145 0,-9.732 -2.40828,-10.62639 -11.56772,-17.98806 -22.38088,-17.98806 -10.817841,0 -19.82799,7.22773 -22.388191,17.95927 -0.588809,2.46809 -0.588809,7.32149 0,9.78958 1.430144,5.99471 4.733231,10.8215 9.639405,14.08604 3.20857,2.13496 6.687082,3.40221 10.632119,3.87336 1.520235,0.18156 5.296107,-0.10241 7.265887,-0.54645 z m 29.17636,-50.09609 c -2.17771,-0.54846 -4.074,-1.9315 -5.28301,-3.85312 -2.53196,-4.02432 -1.30806,-9.54137 2.64959,-11.94369 3.15841,-1.91717 6.42532,-1.87621 9.49283,0.11904 2.55621,1.66267 3.79432,4.04075 3.79397,7.28719 -2.7e-4,3.35713 -1.9198,6.38359 -4.93483,7.78097 -1.54132,0.71436 -4.18404,0.99608 -5.71855,0.60961 z"
         id="path2718"
         inkscape:connector-curvature="0" />
      <path
         style="fill:#f3f3f3;stroke-width:0.26458332;fill-opacity:1"
         d="M 63.414072,255.40952 C 54.504681,254.69752 46.569763,251.00216 40.1366,244.569 33.540597,237.973 30.014955,230.24915 29.269774,220.76236 c -0.31144,-3.9649 -0.31144,-61.65176 0,-65.61666 0.745181,-9.48679 4.270823,-17.21064 10.866826,-23.80664 6.596003,-6.596 14.319849,-10.12165 23.806638,-10.86683 3.964903,-0.31144 61.651762,-0.31144 65.616662,0 9.48679,0.74518 17.21064,4.27083 23.80664,10.86683 6.596,6.596 10.12165,14.31985 10.86683,23.80664 0.31144,3.9649 0.31144,61.65176 0,65.61666 -0.74518,9.48679 -4.27083,17.21064 -10.86683,23.80664 -6.596,6.596 -14.31985,10.12165 -23.80664,10.86683 -3.63424,0.28546 -62.537663,0.26204 -66.145828,-0.0263 z M 131.2508,243.38188 c 10.85247,-1.89252 19.0361,-10.07615 20.92862,-20.92862 0.59975,-3.43924 0.59788,-65.56993 -0.002,-69.01036 -1.89688,-10.87753 -10.04174,-19.01857 -20.92654,-20.91672 -3.4295,-0.59805 -65.568969,-0.59805 -68.998463,0 -10.852469,1.89252 -19.036103,10.07615 -20.928615,20.92862 -0.598054,3.42949 -0.598054,65.56897 0,68.99846 1.878218,10.7705 10.027018,18.97823 20.771683,20.9219 3.111584,0.56287 65.931175,0.56897 69.155395,0.007 z M 94.105737,222.57353 c -8.40401,-0.57913 -15.671371,-3.94668 -21.849177,-10.12449 -4.207206,-4.20721 -6.666071,-8.12931 -8.444333,-13.46943 -1.221377,-3.6678 -1.748443,-6.99144 -1.748443,-11.02558 0,-9.5627 3.377726,-17.67996 10.192776,-24.49501 4.207205,-4.20721 8.129307,-6.66607 13.469429,-8.44433 3.667802,-1.22138 6.991442,-1.74845 11.025581,-1.74845 9.5627,0 17.67996,3.37773 24.49501,10.19278 4.20721,4.20721 6.66607,8.12931 8.44433,13.46943 1.22138,3.6678 1.74845,6.99144 1.74845,11.02558 0,9.5627 -3.37773,17.67996 -10.19278,24.49501 -4.20584,4.20584 -8.12506,6.6633 -13.46943,8.44571 -4.41269,1.47168 -8.821125,2.01301 -13.671413,1.67878 z m 6.431653,-11.99619 c 4.98817,-0.86987 8.67195,-2.80292 12.35592,-6.48373 1.83357,-1.83199 2.85728,-3.12335 3.77542,-4.7625 4.04596,-7.22323 4.04596,-15.53093 0,-22.75416 -0.91712,-1.63732 -1.9439,-2.93315 -3.77542,-4.76466 -3.94529,-3.94529 -8.0823,-5.96615 -13.654379,-6.66991 -9.399582,-1.18719 -19.074994,4.24267 -23.245727,13.04555 -1.577149,3.32879 -2.076545,5.67746 -2.076545,9.7661 0,2.83726 0.118001,4.0072 0.573746,5.68854 3.150611,11.62326 14.434737,18.95977 26.046985,16.93477 z m 30.90389,-50.41841 c -2.51542,-0.51056 -4.82218,-2.26562 -6.06751,-4.61636 -0.61481,-1.16055 -0.70131,-1.6314 -0.70474,-3.83645 -0.003,-2.16046 0.0885,-2.69452 0.65403,-3.80182 0.88782,-1.73839 2.47796,-3.28111 4.23684,-4.11052 2.07945,-0.98056 5.07303,-0.97852 7.14375,0.005 2.99223,1.42104 4.77233,4.0669 4.964,7.37828 0.093,1.60607 0.002,2.28446 -0.47894,3.55849 -1.44285,3.82483 -5.76781,6.23124 -9.74743,5.42349 z"
         id="path2716"
         inkscape:connector-curvature="0" />
    </g>
  </g>
</svg>
