<?xml version="1.0" encoding="UTF-8" standalone="no"?>
<!-- Created with Inkscape (http://www.inkscape.org/) -->

<svg
   xmlns:dc="http://purl.org/dc/elements/1.1/"
   xmlns:cc="http://creativecommons.org/ns#"
   xmlns:rdf="http://www.w3.org/1999/02/22-rdf-syntax-ns#"
   xmlns:svg="http://www.w3.org/2000/svg"
   xmlns="http://www.w3.org/2000/svg"
   xmlns:sodipodi="http://sodipodi.sourceforge.net/DTD/sodipodi-0.dtd"
   xmlns:inkscape="http://www.inkscape.org/namespaces/inkscape"
   width="150.43452mm"
   height="150.43452mm"
   viewBox="0 0 150.43452 150.43452"
   version="1.1"
   id="svg2736"
   inkscape:version="0.92.5 (2060ec1f9f, 2020-04-08)"
   sodipodi:docname="twitter.svg">
  <defs
     id="defs2730" />
  <sodipodi:namedview
     id="base"
     pagecolor="#ffffff"
     bordercolor="#666666"
     borderopacity="1.0"
     inkscape:pageopacity="0.0"
     inkscape:pageshadow="2"
     inkscape:zoom="0.49497475"
     inkscape:cx="-79.283371"
     inkscape:cy="-157.30818"
     inkscape:document-units="mm"
     inkscape:current-layer="layer1"
     showgrid="false"
     inkscape:window-width="1920"
     inkscape:window-height="1016"
     inkscape:window-x="0"
     inkscape:window-y="27"
     inkscape:window-maximized="1" />
  <metadata
     id="metadata2733">
    <rdf:RDF>
      <cc:Work
         rdf:about="">
        <dc:format>image/svg+xml</dc:format>
        <dc:type
           rdf:resource="http://purl.org/dc/dcmitype/StillImage" />
        <dc:title></dc:title>
      </cc:Work>
    </rdf:RDF>
  </metadata>
  <g
     inkscape:label="Camada 1"
     inkscape:groupmode="layer"
     id="layer1"
     transform="translate(-53.672619,70.39286)">
    <g
       id="g2660"
       transform="matrix(1.781458,0,0,1.781458,8.0219752,-274.15266)"
       style="fill:#f3f3f3;fill-opacity:1">
      <path
         style="fill:#f3f3f3;stroke-width:0.26458332;fill-opacity:1"
         d="m 45.217812,190.45858 c -4.410411,-0.64422 -9.210836,-2.05375 -13.486709,-3.96006 -1.805918,-0.80513 -5.948899,-3.10748 -5.951075,-3.30715 -7.93e-4,-0.0728 1.933187,-0.13665 4.297734,-0.14198 4.678235,-0.0106 6.924304,-0.36048 10.852422,-1.69075 2.600655,-0.88072 6.081405,-2.59763 8.249734,-4.06927 1.786001,-1.21214 1.774907,-1.22862 -1.176941,-1.74762 -2.742765,-0.48225 -6.273228,-2.35745 -8.406862,-4.46531 -1.844008,-1.82172 -3.486467,-4.22993 -4.131162,-6.05719 l -0.364278,-1.03247 3.210004,0.008 c 3.970592,0.01 4.499536,-0.23301 2.232554,-1.02516 -2.579086,-0.9012 -4.120493,-1.91276 -6.4566,-4.23718 -2.467753,-2.45542 -4.080116,-5.34241 -4.736952,-8.48168 -0.361026,-1.72549 -0.524631,-3.83646 -0.297333,-3.83646 0.05465,0 0.739262,0.28069 1.521354,0.62374 1.31826,0.57824 2.800585,0.98004 4.930182,1.33639 0.836581,0.13998 0.804939,0.0871 -1.058333,-1.76949 -2.150774,-2.14304 -3.647559,-4.50832 -4.473874,-7.0698 -0.778999,-2.41482 -0.966496,-6.96334 -0.381214,-9.24792 0.405498,-1.58282 1.688147,-4.775 1.918639,-4.775 0.05643,0 1.260565,1.20691 2.675845,2.68203 8.592825,8.95609 18.385739,13.68228 31.412821,15.16023 l 1.322917,0.15008 0.0029,-3.77065 c 0.0026,-3.41999 0.06857,-3.95112 0.708877,-5.71126 0.987491,-2.71454 2.181902,-4.60437 4.192302,-6.63319 1.933445,-1.95117 3.891967,-3.20836 6.541367,-4.19896 2.403552,-0.89867 7.277277,-1.12832 9.853493,-0.46429 2.435696,0.62781 5.154046,2.00785 7.064438,3.58644 l 1.640483,1.35556 2.06121,-0.56549 c 2.494385,-0.68432 5.627985,-1.91459 7.171235,-2.81545 0.62499,-0.36483 1.25692,-0.62314 1.4043,-0.57401 0.14738,0.0491 -0.23293,1.09907 -0.84514,2.3332 -0.89187,1.79788 -1.57811,2.70634 -3.45257,4.57056 l -2.33947,2.32667 0.98994,-0.17876 c 1.98314,-0.35811 4.85927,-1.15953 6.41183,-1.78664 0.87427,-0.35313 1.58958,-0.54863 1.58958,-0.43445 0,0.81117 -4.89131,6.17718 -7.25267,7.95654 l -1.19763,0.90246 -0.013,3.04271 c -0.0394,9.21262 -3.182488,19.0718 -8.69505,27.27487 -7.819085,11.63533 -19.595371,18.9175 -33.550559,20.74687 -3.663109,0.48019 -10.671537,0.47583 -13.988719,-0.009 z"
         id="path2674"
         inkscape:connector-curvature="0" />
      <path
         style="fill:#f3f3f3;stroke-width:0.26458332;fill-opacity:1"
         d="m 46.315719,190.56374 c -5.465384,-0.70169 -10.934263,-2.36231 -15.907532,-4.83032 -5.197398,-2.57922 -5.177771,-2.52363 -0.894554,-2.53364 5.559639,-0.013 10.256218,-1.01503 14.974636,-3.19494 2.300067,-1.06264 6.425125,-3.63728 6.425125,-4.01023 0,-0.11636 -0.451236,-0.21157 -1.002744,-0.21157 -1.520278,0 -3.933211,-0.69331 -6.141006,-1.76449 -3.355813,-1.62818 -7.047377,-5.74729 -8.444843,-9.4229 l -0.274286,-0.72143 1.810174,0.16824 c 1.946087,0.18087 5.321455,-0.0788 5.321455,-0.40943 0,-0.11091 -0.506015,-0.35116 -1.124479,-0.53389 -4.896879,-1.44687 -9.445751,-5.96124 -11.106676,-11.02245 -0.626932,-1.9104 -1.242181,-5.6624 -0.928515,-5.6624 0.07213,0 0.790278,0.30176 1.595887,0.67058 1.373206,0.62868 4.474631,1.4312 5.57077,1.44149 0.340395,0.003 0.08272,-0.33758 -0.84678,-1.11988 -4.683636,-3.94194 -7.06656,-10.74768 -5.831745,-16.65573 0.323948,-1.54996 1.773047,-5.24764 2.046751,-5.22272 0.09556,0.009 0.709527,0.67151 1.364371,1.47291 1.801696,2.20492 6.151163,6.00898 9.237631,8.07925 4.894902,3.2833 10.63572,5.82341 16.126289,7.13532 1.968212,0.47028 7.122607,1.26949 8.275807,1.2832 0.384177,0.005 0.418338,-0.31186 0.294865,-2.73114 -0.276434,-5.41632 1.340225,-9.58744 5.197136,-13.40907 3.776781,-3.74223 7.644682,-5.22247 12.93088,-4.94864 4.070717,0.21086 7.636118,1.6125 10.382202,4.08146 0.695875,0.62566 1.442775,1.13755 1.659776,1.13755 0.993444,0 5.338936,-1.474 7.795936,-2.6444 1.53159,-0.72958 2.70945,-1.15498 2.70616,-0.97737 -0.0105,0.56827 -0.99577,2.50917 -2.06684,4.07149 -1.0324,1.50592 -2.60181,3.13434 -4.11459,4.2693 -0.49645,0.37246 -0.61812,0.57265 -0.34802,0.57265 1.20927,0 5.87102,-1.24724 8.49723,-2.27342 1.3618,-0.53212 -4.04806,5.68224 -6.72148,7.72101 l -1.25168,0.95454 -0.15217,4.00883 c -0.86148,22.6946 -16.616619,41.80127 -38.286633,46.4312 -4.95,1.05761 -12.107153,1.3995 -16.768508,0.80104 z"
         id="path2672"
         inkscape:connector-curvature="0" />
      <path
         style="fill:#f3f3f3;stroke-width:0.26458332;fill-opacity:1"
         d="m 46.680061,190.57105 c -6.467964,-0.73201 -14.686512,-3.52351 -19.711457,-6.69516 l -1.058334,-0.668 3.735655,-0.008 c 4.390498,-0.01 7.379094,-0.47313 11.123379,-1.72483 3.227117,-1.07882 5.882013,-2.38415 8.55659,-4.20701 1.889302,-1.28766 1.946346,-1.3557 1.190625,-1.4202 -4.627716,-0.39497 -8.492299,-2.27816 -11.630125,-5.6673 -1.523084,-1.64507 -3.583911,-5.02463 -3.583154,-5.87603 1.77e-4,-0.20042 0.998188,-0.29518 3.108854,-0.29518 4.175196,0 4.697695,-0.23509 2.3476,-1.05628 -2.611165,-0.91241 -4.523356,-2.13124 -6.644806,-4.23538 -2.854529,-2.83125 -4.516803,-6.39701 -5.023165,-10.77528 l -0.175196,-1.51485 1.504098,0.66518 c 1.619781,0.71635 4.321164,1.42825 5.443648,1.43458 0.627367,0.004 0.485979,-0.20449 -1.480928,-2.1789 -1.707415,-1.71393 -2.411616,-2.66591 -3.278291,-4.43177 -2.093965,-4.26648 -2.41717,-8.72894 -0.953021,-13.15823 1.170525,-3.54102 0.928052,-3.5396 4.389996,-0.0257 6.593527,6.69251 14.180623,11.08417 23.020357,13.32493 2.656623,0.67341 7.322243,1.43259 8.859752,1.44163 l 0.824368,0.005 -0.217532,-1.12447 c -0.627754,-3.24499 -0.02051,-7.12381 1.643784,-10.49995 1.43977,-2.92066 4.493162,-6.0651 7.296549,-7.51413 6.315258,-3.26425 14.22283,-2.4206 19.304484,2.05958 0.751086,0.66219 1.612863,1.20398 1.915064,1.20398 1.010672,0 5.689315,-1.63891 8.030265,-2.81297 1.27331,-0.6386 2.3151,-1.02925 2.3151,-0.86811 0,0.16114 -0.49821,1.25062 -1.10714,2.42106 -1.09396,2.10272 -3.24394,4.596 -5.24286,6.07999 l -0.92604,0.68749 2.11582,-0.39441 c 1.73654,-0.32371 5.59672,-1.45417 7.25318,-2.1241 1.20432,-0.48707 -4.27609,5.70647 -6.71302,7.58655 l -1.46535,1.13052 -0.002,2.41522 c -0.006,7.11565 -1.791005,14.59902 -5.118961,21.46522 -2.917936,6.02025 -5.820261,10.02927 -10.541518,14.56113 -7.639825,7.33334 -17.211677,11.67535 -28.258181,12.81853 -2.950247,0.30532 -8.037851,0.29409 -10.847916,-0.0239 z"
         id="path2670"
         inkscape:connector-curvature="0" />
      <path
         style="fill:#f3f3f3;stroke-width:0.26458332;fill-opacity:1"
         d="M 47.100613,190.57327 C 40.700377,189.8986 33.09221,187.43775 27.824414,184.33842 l -1.790021,-1.05316 3.642104,-0.0106 c 4.170029,-0.0121 7.306352,-0.49054 10.887903,-1.66094 2.845938,-0.93001 6.966645,-2.98294 9.19336,-4.58012 l 1.552509,-1.11358 -1.577202,-0.19826 c -5.030528,-0.63235 -9.616731,-3.37604 -12.335579,-7.37971 -0.937109,-1.37996 -2.094941,-3.67792 -2.094259,-4.1565 1.38e-4,-0.0971 1.458654,-0.1765 3.241146,-0.1765 4.316984,0 4.894387,-0.24908 2.412873,-1.04087 -6.286484,-2.00585 -11.18154,-8.05162 -11.671625,-14.41536 -0.143121,-1.85844 -0.124386,-1.95081 0.353423,-1.74258 1.632084,0.71127 4.199373,1.46593 5.511731,1.62017 l 1.514845,0.17804 -2.236438,-2.23644 c -1.797907,-1.79791 -2.44719,-2.67451 -3.311237,-4.47053 -1.926502,-4.00446 -2.368177,-8.53139 -1.212638,-12.42892 0.368811,-1.24397 1.268852,-3.31569 1.597795,-3.67781 0.0571,-0.0629 1.122341,0.9772 2.36719,2.31127 8.01289,8.58716 19.783657,14.34986 31.234799,15.29184 l 2.153158,0.17712 -0.264322,-1.42463 c -0.357505,-1.92688 -0.09268,-5.25936 0.596805,-7.51005 0.880118,-2.87297 2.229337,-5.06817 4.49857,-7.31926 5.966423,-5.91872 15.164826,-6.63141 22.04925,-1.70839 0.891942,0.63782 1.838817,1.40119 2.104165,1.69638 l 0.482451,0.53671 2.358819,-0.64636 c 2.498251,-0.68458 6.123201,-2.14426 7.615651,-3.06664 l 0.89599,-0.55376 -0.19726,0.63587 c -0.76262,2.45832 -3.11212,5.72302 -5.42818,7.54262 -0.87196,0.68506 -1.54876,1.28218 -1.504,1.32695 0.30106,0.30106 6.43983,-1.34786 9.03912,-2.42797 0.34261,-0.14237 0.0788,0.35735 -0.78539,1.48787 -1.80501,2.3612 -3.67207,4.30744 -5.61747,5.85569 l -1.65364,1.31606 v 2.06585 c 0,15.24697 -7.836351,31.03633 -19.843751,39.98293 -9.591164,7.14628 -22.184356,10.50709 -34.504446,9.20839 z"
         id="path2668"
         inkscape:connector-curvature="0" />
      <path
         style="fill:#f3f3f3;stroke-width:0.26458332;fill-opacity:1"
         d="m 47.412496,190.58917 c -5.743408,-0.60177 -11.847879,-2.36456 -16.815114,-4.85572 -1.614707,-0.8098 -3.329868,-1.71882 -3.811471,-2.02004 l -0.875641,-0.54766 2.127425,0.17444 c 4.197331,0.34415 10.450811,-0.74169 15.034973,-2.61063 2.41899,-0.98622 6.044078,-3.04641 7.39263,-4.20136 l 0.844971,-0.72366 -0.949865,-0.0107 c -1.599827,-0.0181 -4.928721,-1.00142 -6.934845,-2.04846 -2.687804,-1.40283 -5.546489,-4.31256 -7.005706,-7.13082 -0.614283,-1.18638 -1.11656,-2.25795 -1.116174,-2.38125 2.65e-4,-0.1233 1.458902,-0.22418 3.241146,-0.22418 4.076459,0 4.891418,-0.25816 2.843165,-0.90066 -6.691612,-2.09904 -11.577706,-8.02805 -12.103322,-14.68674 -0.135829,-1.72074 -0.114668,-1.81649 0.357277,-1.61655 2.147613,0.90982 4.115298,1.50137 5.46236,1.64217 l 1.588212,0.166 -2.108991,-2.09169 c -3.576288,-3.54697 -5.205955,-7.34034 -5.217975,-12.14587 -0.0037,-1.45521 0.157141,-3.30068 0.357291,-4.10104 0.325077,-1.29993 1.44281,-4.15295 1.745649,-4.45579 0.0641,-0.0641 1.20169,1.03006 2.52798,2.43147 6.26891,6.62397 14.186248,11.35861 22.870048,13.67648 3.126671,0.83457 7.5,1.57291 9.331602,1.57544 1.105366,0.002 1.12517,-0.014 0.926042,-0.72604 -0.111914,-0.40018 -0.191516,-1.97776 -0.176898,-3.50573 0.02185,-2.28371 0.154805,-3.15437 0.747085,-4.89225 1.83647,-5.38862 5.844336,-9.42521 11.075829,-11.15523 1.880396,-0.62183 2.601483,-0.71852 5.348422,-0.71718 2.773177,10e-4 3.442559,0.0937 5.289126,0.72967 2.386354,0.82188 4.506412,2.02982 6.238655,3.5546 l 1.1767,1.03578 1.982134,-0.51399 c 2.324144,-0.60267 5.378044,-1.78917 7.351724,-2.85628 1.35178,-0.73087 1.39459,-0.73722 1.2225,-0.18116 -0.7417,2.39665 -3.19568,5.72199 -5.59661,7.58388 l -1.78923,1.38753 1.19062,-0.18573 c 1.79847,-0.28055 5.14442,-1.15031 6.78129,-1.76274 0.80152,-0.29989 1.50623,-0.49633 1.56602,-0.43654 0.27107,0.27107 -3.62221,4.68161 -5.73699,6.4992 l -2.34573,2.01609 -2.2e-4,1.73311 c -0.002,13.78714 -6.151328,27.91407 -16.168897,37.14358 -5.629841,5.18695 -12.964384,9.16318 -20.295753,11.00281 -5.078306,1.27428 -12.651273,1.84898 -17.571444,1.33348 z"
         id="path2666"
         inkscape:connector-curvature="0" />
      <path
         style="fill:#f3f3f3;stroke-width:0.26458332;fill-opacity:1"
         d="m 47.956755,190.60044 c -6.124808,-0.58272 -11.744348,-2.1714 -17.283985,-4.8863 -5.068267,-2.48389 -5.049207,-2.38499 -0.46681,-2.42221 5.724036,-0.0465 10.169353,-1.08954 14.988746,-3.51695 2.421916,-1.21986 5.973524,-3.45263 5.979871,-3.75933 0.0019,-0.0903 -0.720095,-0.24612 -1.604367,-0.34616 -2.071708,-0.23439 -4.918466,-1.20237 -6.808731,-2.31517 -2.891531,-1.70225 -5.979033,-5.3561 -7.167676,-8.48247 l -0.269867,-0.7098 2.436915,0.0211 c 4.002545,0.0347 6.548475,-0.56374 4.133943,-0.97167 -0.595842,-0.10067 -2.054863,-0.6648 -3.24227,-1.25362 -1.695334,-0.84069 -2.643307,-1.55921 -4.414708,-3.34614 -2.510316,-2.53232 -3.893717,-4.92312 -4.608306,-7.96411 -0.396354,-1.68671 -0.551098,-3.96874 -0.269116,-3.96874 0.07856,0 0.591715,0.229 1.140349,0.50889 1.336011,0.68158 3.96,1.34319 5.327205,1.34319 h 1.110049 l -1.343239,-1.06177 c -5.881703,-4.64922 -7.850595,-13.15005 -4.733131,-20.43563 0.29577,-0.69122 0.563861,-1.25677 0.59576,-1.25677 0.03189,0 1.654344,1.57758 3.605437,3.50573 4.297754,4.24721 7.348391,6.46253 12.413601,9.01452 5.853451,2.94912 11.905061,4.72276 17.459141,5.117 l 2.412506,0.17124 -0.20279,-0.76831 c -0.358963,-1.36 -0.191442,-5.70687 0.289623,-7.51518 1.406901,-5.28849 5.515716,-9.87152 10.546289,-11.76346 5.85163,-2.20074 12.275295,-1.08592 17.309205,3.00397 l 1.646795,1.33798 2.207718,-0.63978 c 2.652478,-0.76866 4.404268,-1.44533 6.563528,-2.53532 0.88811,-0.44832 1.65731,-0.77255 1.70934,-0.72053 0.052,0.052 -0.33686,0.96177 -0.86419,2.02166 -1.03366,2.07756 -3.91507,5.4045 -5.56265,6.42276 -0.52731,0.3259 -0.82247,0.63796 -0.65592,0.69347 0.51164,0.17055 4.56599,-0.75063 6.8473,-1.55577 1.1889,-0.41959 2.23765,-0.76289 2.33057,-0.76289 0.68814,0 -5.23344,6.40502 -7.11102,7.69156 l -0.87877,0.60214 -0.184,3.7172 c -1.21879,24.62352 -18.10503,43.98856 -41.297581,47.3598 -3.436951,0.4996 -9.181859,0.70204 -12.084764,0.42586 z"
         id="path2664"
         inkscape:connector-curvature="0" />
      <path
         style="fill:#f3f3f3;stroke-width:0.26458332;fill-opacity:1"
         d="m 48.384575,190.57965 c -6.893665,-0.50372 -15.564944,-3.20679 -20.797987,-6.4833 l -1.234096,-0.77269 3.879929,-0.0132 c 7.113008,-0.0242 12.926824,-1.81903 19.08579,-5.89204 l 2.241277,-1.48218 -2.148382,-0.33338 c -6.169623,-0.95738 -11.073437,-4.61457 -13.477988,-10.05169 l -0.657,-1.4856 1.699146,0.17409 c 1.59454,0.16336 5.209278,-0.16957 5.79915,-0.53413 0.146368,-0.0905 -0.558292,-0.42586 -1.56591,-0.74532 -2.849546,-0.90346 -4.53623,-1.94869 -6.846564,-4.24277 -1.484339,-1.47389 -2.430661,-2.69512 -3.116265,-4.02154 -1.060765,-2.05223 -2.028113,-5.37799 -2.028113,-6.97268 v -0.98771 l 1.92093,0.7459 c 1.700475,0.66029 5.440783,1.41411 5.726231,1.15405 0.0586,-0.0534 -0.239058,-0.35705 -0.661458,-0.6748 -4.685826,-3.52502 -7.448748,-9.96261 -6.725171,-15.66961 0.262655,-2.0716 1.099712,-4.90906 1.743152,-5.90892 0.370972,-0.57647 0.40368,-0.55649 2.163053,1.32109 7.230964,7.71681 15.729018,12.61188 25.762087,14.83954 2.479008,0.55042 7.856881,1.27951 8.104226,1.0987 0.03594,-0.0263 -0.05161,-0.97021 -0.194558,-2.09765 -1.049142,-8.27482 4.47976,-16.34704 12.718078,-18.56846 2.665333,-0.7187 6.71699,-0.61228 9.371552,0.24615 2.476952,0.80099 4.852691,2.15934 6.376156,3.64564 l 1.084493,1.05803 2.169419,-0.5539 c 2.518518,-0.64303 4.212928,-1.28346 6.705848,-2.53457 0.98342,-0.49355 1.78804,-0.76923 1.78804,-0.61262 0,0.1566 -0.44515,1.13185 -0.98921,2.16722 -1.06756,2.03157 -3.35478,4.661 -5.11614,5.88163 -0.60345,0.41819 -0.96328,0.80497 -0.79963,0.85952 0.49887,0.16629 4.52567,-0.7282 6.83884,-1.51914 1.20054,-0.4105 2.18281,-0.68249 2.18281,-0.60442 0,0.58479 -4.06849,4.99414 -6.45279,6.9934 l -1.558,1.3064 -0.0904,3.0898 c -0.48404,16.54615 -8.82392,31.80444 -22.193622,40.60448 -8.593762,5.65648 -19.650387,8.38462 -30.706943,7.57671 z"
         id="path2662"
         inkscape:connector-curvature="0" />
    </g>
  </g>
</svg>
